<svg width="20" height="20" viewBox="0 0 20 20" fill="none" xmlns="http://www.w3.org/2000/svg">
  <path d="M10.0003 6.25L9.38025 7.4L8.00024 7.59001L9.00025 8.48001L8.76025 9.75001L10.0003 9.15001L11.2403 9.75001L11.0003 8.48001L12.0003 7.59001L10.6203 7.4L10.0003 6.25Z" stroke="#CE8E59" stroke-width="2.00001" stroke-linecap="round" stroke-linejoin="round"/>
  <path d="M3.79001 11.5699L1 15.56L4.03001 16.46L5.91002 19L8.79003 14.89" stroke="#CE8E59" stroke-width="2.00001" stroke-linecap="round" stroke-linejoin="round"/>
  <path d="M16.21 11.5699L19 15.56L15.97 16.46L14.09 19L11.21 14.89" stroke="#CE8E59" stroke-width="2.00001" stroke-linecap="round" stroke-linejoin="round"/>
  <path d="M10 15.0001C13.866 15.0001 17.0001 11.866 17.0001 8.00003C17.0001 4.13402 13.866 1 10 1C6.13402 1 3 4.13402 3 8.00003C3 11.866 6.13402 15.0001 10 15.0001Z" stroke="#CE8E59" stroke-width="2.00001" stroke-linecap="round" stroke-linejoin="round"/>
</svg>
