<svg width="20" height="18" viewBox="0 0 20 18" fill="none" xmlns="http://www.w3.org/2000/svg">
  <path d="M18.9598 6.14372H17.4596C16.5469 2.61228 13.344 0.000408203 9.51983 0C5.69565 0.000408203 2.49274 2.61228 1.5801 6.14372H0.079835C0.079835 6.14372 -1.0084 11.4035 4.85072 14.9249C5.22148 15.1813 5.61633 15.4033 6.02791 15.5969L5.82591 17.8167H13.2138L13.0117 15.5969C13.4233 15.4033 13.8182 15.1813 14.1889 14.9249C20.0481 11.4035 18.9598 6.14372 18.9598 6.14372ZM9.51983 6.14372H3.28434C3.60861 5.15899 4.15734 4.27619 4.87638 3.55783C6.06722 2.37029 7.70374 1.63875 9.51983 1.63834C11.3359 1.63875 12.9724 2.37029 14.1633 3.55783C14.8823 4.27619 15.4311 5.15895 15.7553 6.14372H9.51983Z" fill="white"/>
</svg>
