<svg width="41" height="41" viewBox="0 0 41 41" fill="none" xmlns="http://www.w3.org/2000/svg">
<path opacity="0.5" d="M4.47578 39.6415L8.9668 38.4399C9.74261 38.2323 10.5643 38.3515 11.2832 38.7094C13.9883 40.0569 17.0386 40.8147 20.266 40.8147C31.4082 40.8147 40.4409 31.782 40.4409 20.6398C40.4409 9.49746 31.4082 0.464844 20.266 0.464844C9.12368 0.464844 0.0910645 9.49746 0.0910645 20.6398C0.0910645 23.8671 0.848875 26.9174 2.19624 29.6226C2.5543 30.3415 2.67347 31.1632 2.46589 31.9389L1.26426 36.4301M4.47578 39.6415L4.28124 38.9143M4.47578 39.6415L4.28121 38.9143L4.28124 38.9143M4.47578 39.6415C2.5262 40.163 0.742614 38.3796 1.26426 36.4301M4.28124 38.9143L8.77223 37.7127C9.74844 37.4515 10.7583 37.6072 11.6187 38.0355L11.6188 38.0356C14.222 39.3323 17.1577 40.0619 20.266 40.0619C30.9924 40.0619 39.6881 31.3662 39.6881 20.6398C39.6881 9.91322 30.9924 1.21764 20.266 1.21764C9.53944 1.21764 0.84386 9.91322 0.84386 20.6398C0.84386 23.7481 1.57347 26.6837 2.87008 29.287M4.28124 38.9143C2.89113 39.2862 1.61958 38.0145 1.99147 36.6247L1.26426 36.4301M2.87008 29.287C2.87008 29.287 2.87007 29.287 2.87006 29.287L2.19716 29.6222L2.87008 29.287ZM2.87008 29.287C3.29868 30.1475 3.45431 31.1574 3.1931 32.1335M3.1931 32.1335L3.19311 32.1335L2.46677 31.9392L3.1931 32.1335ZM3.1931 32.1335L1.99147 36.6246L1.26426 36.4301" fill="#FEFEFE" stroke="#CE8E59" stroke-width="1.50559"/>
<path d="M16.7766 26.0033L16.7765 26.0032C15.5795 24.985 14.3527 23.7851 13.4307 22.5226C12.5 21.2479 11.9401 19.991 11.9401 18.843C11.9401 16.3741 13.0638 14.8568 14.4584 14.3353C15.8613 13.8107 17.8295 14.1852 19.7281 16.1243L20.266 16.6737L20.8039 16.1243C22.7026 14.1852 24.6707 13.8107 26.0737 14.3353C27.4683 14.8568 28.5919 16.3741 28.5919 18.843C28.5919 19.991 28.0321 21.2479 27.1013 22.5226C26.1794 23.7851 24.9526 24.985 23.7556 26.0032L23.7555 26.0033C22.049 27.4552 21.4273 27.9448 20.266 27.9448C19.1048 27.9448 18.483 27.4552 16.7766 26.0033Z" fill="#FEFEFE" stroke="#CE8E59" stroke-width="1.50559"/>
</svg>
